<svg version="1.2" xmlns="http://www.w3.org/2000/svg" viewBox="0 0 1266 1266" width="1266" height="1266">
	<title>apple-logo-svg</title>
	<style>
		.s0 { fill: #ffffff } 
	</style>
	<path id="Layer" class="s0" d="m1104 952.2c-17.9 41.5-39.2 79.6-63.8 114.7-33.5 47.9-61 81-82.2 99.4-32.8 30.2-68 45.7-105.7 46.5-27 0-59.6-7.6-97.6-23.3-38.1-15.5-73.1-23.2-105.1-23.2-33.5 0-69.5 7.7-108 23.2-38.6 15.7-69.7 23.8-93.4 24.6-36.1 1.5-72.1-14.4-108.1-47.8-22.9-20-51.6-54.3-86-102.9-36.8-51.9-67.2-112-90.9-180.6-25.4-74.1-38.2-145.8-38.2-215.3 0-79.6 17.2-148.2 51.6-205.7 27.1-46.2 63.1-82.6 108.2-109.4 45-26.7 93.7-40.3 146.1-41.2 28.7 0 66.3 8.9 113.1 26.3 46.6 17.5 76.6 26.4 89.7 26.4 9.8 0 43.1-10.4 99.4-31.1 53.3-19.2 98.3-27.1 135.2-24 99.9 8.1 174.9 47.5 224.8 118.4-89.3 54.1-133.5 129.9-132.6 227.2 0.8 75.7 28.3 138.8 82.3 188.8 24.5 23.2 51.8 41.2 82.2 54-6.6 19.1-13.6 37.4-21 55zm-229-901.4c0 59.3-21.7 114.8-65 166.1-52.1 61-115.3 96.2-183.7 90.7q-0.3-2.8-0.6-5.6-0.2-2.9-0.4-5.7-0.2-2.8-0.3-5.6-0.1-2.8-0.1-5.6c0-57 24.8-118 68.9-167.9q33-37.9 83.9-63c33.9-16.5 65.9-25.6 96-27.2 0.9 7.9 1.3 15.9 1.3 23.8z"/>
</svg>